<?xml version="1.0" standalone="no"?>
<!DOCTYPE svg PUBLIC "-//W3C//DTD SVG 20010904//EN"
 "http://www.w3.org/TR/2001/REC-SVG-20010904/DTD/svg10.dtd">
<svg version="1.0" xmlns="http://www.w3.org/2000/svg"
 width="512.000000pt" height="512.000000pt" viewBox="0 0 512.000000 512.000000"
 preserveAspectRatio="xMidYMid meet">

<g transform="translate(0.000000,512.000000) scale(0.100000,-0.100000)"
fill="#0000FF" stroke="none">
<path d="M1364 5104 c-60 -21 -118 -75 -145 -136 l-24 -53 0 -905 0 -905 29
-58 c32 -67 95 -119 163 -136 26 -7 192 -11 437 -11 l396 0 0 -85 0 -85 -297
0 c-347 0 -423 -11 -568 -79 -249 -116 -410 -311 -478 -579 -22 -87 -22 -89
-22 -1017 0 -1040 -5 -963 72 -1022 l36 -28 1597 0 1597 0 36 28 c77 58 72 -9
75 952 2 573 -1 896 -8 968 -32 315 -208 564 -495 698 -145 68 -221 79 -567
79 l-298 0 0 85 0 85 396 0 c245 0 411 4 437 11 68 17 131 69 163 136 l29 58
0 905 0 905 -24 53 c-13 29 -42 68 -64 87 -80 69 -7 65 -1281 64 -982 0 -1157
-3 -1192 -15z m2345 -169 c16 -8 31 -22 35 -30 3 -9 6 -349 6 -756 l0 -739
-1190 0 -1190 0 0 743 c0 784 -1 760 45 785 14 8 349 11 1143 12 966 0 1127
-2 1151 -15z m41 -1751 c0 -68 -10 -89 -51 -103 -45 -16 -2233 -16 -2278 0
-41 14 -51 35 -51 103 l0 56 1190 0 1190 0 0 -56z m-1020 -369 l0 -85 -170 0
-170 0 0 85 0 85 170 0 170 0 0 -85z m-860 -257 c0 -2 -18 -216 -40 -477 -42
-501 -42 -498 4 -531 11 -8 158 -101 326 -206 l305 -191 3 -491 2 -492 -425 0
-425 0 0 184 c0 180 -1 186 -24 212 -30 36 -86 39 -119 6 -21 -21 -22 -31 -25
-212 l-3 -190 -215 0 -215 0 4 908 c4 1002 0 944 68 1088 75 159 221 293 378
349 40 14 43 14 36 -3 -4 -9 -17 -39 -29 -67 -20 -48 -21 -66 -24 -542 l-3
-492 -49 -36 c-122 -89 -195 -232 -202 -393 -5 -104 38 -140 151 -129 65 7
101 38 101 88 0 32 -38 79 -65 79 -19 0 -12 35 22 103 25 50 107 137 130 137
27 0 121 -108 142 -165 12 -30 21 -59 21 -63 0 -4 -13 -13 -29 -20 -37 -16
-56 -61 -44 -99 18 -55 122 -81 198 -49 46 20 60 67 47 161 -20 142 -90 265
-197 348 l-55 42 0 456 c0 386 2 463 16 509 21 72 82 135 154 160 50 18 80 24
80 18z m488 -15 c-189 -224 -191 -226 -204 -201 -14 28 -74 196 -74 209 0 5
64 9 147 9 138 0 145 -1 131 -17z m682 8 c0 -15 -71 -215 -80 -224 -6 -7 -61
54 -198 216 -14 16 -7 17 131 17 86 0 147 -4 147 -9z m315 -20 c22 -10 57 -36
77 -59 66 -73 68 -90 68 -588 l0 -443 -54 -24 c-75 -35 -131 -89 -167 -163
-40 -81 -45 -178 -14 -264 28 -77 119 -169 198 -198 161 -60 338 6 422 160 28
49 30 61 30 153 0 84 -4 108 -23 146 -36 73 -87 125 -157 160 l-64 31 -3 477
c-3 459 -4 478 -24 526 -12 28 -25 58 -29 67 -7 17 -4 17 36 3 157 -56 303
-190 378 -349 68 -144 64 -86 68 -1088 l4 -908 -215 0 -215 0 -3 190 c-3 181
-4 191 -25 212 -33 33 -89 30 -119 -6 -23 -26 -24 -32 -24 -212 l0 -184 -425
0 -425 0 2 492 3 491 305 191 c168 105 315 198 326 206 46 33 46 30 4 531 -22
261 -40 475 -40 477 0 7 66 -11 105 -27z m-629 -209 c138 -161 155 -186 147
-205 -125 -285 -308 -687 -313 -687 -3 0 -20 30 -36 68 -17 37 -88 196 -159
354 l-128 286 159 186 c88 102 162 185 166 183 4 -1 77 -84 164 -185z m-521
-526 c90 -204 163 -372 161 -374 -2 -2 -93 52 -201 120 l-198 123 6 80 c4 44
14 170 24 279 15 181 18 197 30 170 7 -16 87 -195 178 -398z m925 160 c11
-132 20 -251 20 -266 0 -24 -21 -40 -196 -149 -108 -67 -198 -121 -199 -119
-2 2 76 182 173 401 98 218 178 392 179 385 2 -7 12 -121 23 -252z m530 -698
c61 -32 83 -66 88 -136 5 -70 -11 -108 -63 -148 -68 -51 -168 -42 -224 21 -62
71 -59 178 6 237 57 52 124 61 193 26z"/>
<path d="M2400 4758 c-78 -40 -99 -91 -100 -235 l0 -83 -87 0 c-110 0 -158
-13 -199 -54 -44 -44 -57 -99 -52 -231 4 -127 20 -166 86 -203 34 -19 55 -22
146 -22 l106 0 0 -80 c0 -209 59 -270 260 -270 201 0 260 61 260 270 l0 80
106 0 c91 0 112 3 146 22 66 37 82 76 86 203 5 132 -8 187 -52 231 -41 41 -89
54 -198 54 l-88 0 0 83 c-1 144 -22 195 -100 235 -38 19 -60 22 -160 22 -100
0 -122 -3 -160 -22z m250 -270 c5 -126 14 -147 74 -192 23 -18 47 -22 144 -26
l117 -5 3 -81 3 -81 -108 -5 c-89 -4 -116 -8 -149 -27 -65 -37 -78 -68 -84
-201 l-5 -115 -85 0 -85 0 -5 115 c-6 133 -19 164 -84 201 -33 19 -60 23 -149
27 l-108 5 3 81 3 81 117 5 c129 6 151 15 196 80 19 29 22 45 22 140 0 59 3
110 7 114 4 4 43 5 88 4 l80 -3 5 -117z"/>
</g>
</svg>
