<?xml version="1.0" standalone="no"?>
<!DOCTYPE svg PUBLIC "-//W3C//DTD SVG 20010904//EN"
 "http://www.w3.org/TR/2001/REC-SVG-20010904/DTD/svg10.dtd">
<svg version="1.0" xmlns="http://www.w3.org/2000/svg"
 width="512.000000pt" height="512.000000pt" viewBox="0 0 512.000000 512.000000"
 preserveAspectRatio="xMidYMid meet">

<g transform="translate(0.000000,512.000000) scale(0.100000,-0.100000)"
fill="#0000FF" stroke="none">
<path d="M3330 5095 c-69 -17 -141 -48 -200 -85 l-45 -28 -132 34 c-186 47
-330 64 -556 64 -784 0 -1504 -311 -1821 -788 -244 -367 -272 -800 -80 -1236
24 -55 44 -103 44 -107 0 -4 -77 -110 -170 -235 -118 -158 -187 -261 -222
-331 -47 -94 -52 -110 -56 -187 -4 -78 -2 -90 26 -150 43 -91 100 -147 251
-243 2 -1 -6 -15 -18 -32 -95 -133 -92 -250 9 -351 l41 -41 -17 -51 c-45 -135
1 -234 134 -288 21 -8 31 -18 28 -26 -3 -8 -13 -51 -22 -96 -67 -330 114 -511
472 -469 179 21 374 80 581 176 l92 43 35 -46 c90 -124 147 -278 212 -570 11
-53 -16 -52 1169 -52 1192 0 1157 -2 1171 54 4 19 -11 66 -60 180 -189 441
-270 773 -270 1111 -1 251 29 401 125 644 108 270 179 513 226 780 23 127 27
179 29 405 l4 260 303 305 c265 268 308 315 340 378 178 344 36 772 -308 930
-102 47 -176 63 -287 63 -152 0 -264 -32 -378 -108 l-59 -40 -33 25 c-53 40
-141 81 -220 103 -86 24 -251 26 -338 5z m1212 -155 c224 -84 357 -288 346
-530 -5 -109 -29 -185 -84 -270 -20 -30 -224 -243 -458 -478 l-421 -423 -441
443 c-395 398 -443 450 -471 508 -45 96 -56 144 -56 250 1 109 24 196 72 272
107 168 269 258 463 258 143 0 222 -28 342 -120 37 -28 76 -50 90 -50 13 0 45
18 72 41 52 43 133 88 199 109 97 32 248 28 347 -10z m-1952 -5 c85 -5 258
-33 337 -54 l41 -11 -43 -65 c-24 -35 -49 -80 -56 -100 -15 -41 -21 -42 -59
-15 -105 74 -285 65 -391 -20 l-38 -30 -68 35 c-92 46 -170 65 -273 65 -151 0
-281 -49 -388 -145 l-57 -53 -106 -3 c-98 -4 -111 -7 -182 -42 -128 -63 -222
-175 -249 -295 -10 -49 -16 -57 -64 -87 -28 -18 -63 -49 -78 -67 -59 -78 -87
-192 -68 -276 8 -35 7 -46 -9 -66 -35 -44 -88 -168 -105 -244 -35 -159 -2
-355 84 -497 48 -79 152 -181 232 -228 112 -65 207 -90 340 -90 72 0 134 6
167 15 l52 15 27 -38 c102 -148 280 -239 467 -239 113 0 189 19 285 70 70 38
74 39 124 30 29 -6 55 -14 59 -18 3 -4 12 -29 18 -57 18 -74 67 -159 121 -209
53 -50 120 -86 267 -144 189 -75 270 -148 333 -302 37 -90 38 -90 222 -90 93
0 168 4 179 11 11 5 24 22 30 37 14 36 -6 232 -36 349 -23 89 -89 242 -134
309 l-21 31 60 46 c108 84 184 202 219 337 12 47 29 84 59 122 23 30 57 87 76
128 27 61 51 91 121 160 l87 85 -5 -185 c-10 -342 -74 -623 -241 -1056 -110
-288 -140 -438 -140 -709 0 -364 75 -671 291 -1192 4 -10 -203 -13 -1016 -13
l-1021 0 -6 28 c-22 101 -69 253 -102 330 -65 152 -197 332 -243 332 -12 0
-54 -18 -93 -39 -232 -128 -574 -223 -744 -208 -184 18 -239 130 -177 362 40
149 41 153 16 179 -13 14 -40 26 -63 30 -49 8 -113 40 -121 60 -7 18 9 79 34
128 28 55 25 85 -13 116 -72 60 -108 103 -108 130 0 31 40 100 93 159 67 75
59 104 -45 161 -166 91 -238 174 -238 273 0 83 53 181 217 401 173 232 253
348 253 365 0 7 -23 59 -50 114 -175 347 -186 702 -32 1022 203 423 712 727
1394 833 113 17 351 32 438 28 30 -2 93 -6 140 -9z m-415 -353 c50 -17 108
-50 174 -98 44 -32 65 -25 121 38 24 28 59 57 77 64 50 22 131 17 177 -9 65
-37 78 -63 92 -190 15 -125 43 -215 95 -304 24 -41 165 -190 484 -511 l450
-453 -25 -47 c-37 -71 -119 -148 -197 -185 -64 -30 -75 -32 -179 -32 l-111 0
-88 45 c-48 24 -97 43 -108 43 -35 -3 -58 -34 -55 -72 3 -30 11 -41 56 -73 81
-56 159 -79 282 -85 84 -3 119 0 173 15 37 11 67 17 67 14 0 -3 -14 -27 -31
-54 -40 -63 -112 -126 -187 -166 -90 -48 -93 -69 -21 -167 94 -129 163 -311
176 -462 l6 -73 -79 0 -79 0 -35 67 c-42 82 -143 191 -219 237 -31 19 -108 56
-171 81 -148 61 -163 69 -212 113 -39 35 -88 120 -88 153 0 12 18 18 80 27 44
6 90 16 101 22 27 15 41 54 29 85 -15 40 -48 49 -122 36 -93 -16 -238 -14
-314 5 l-65 17 -52 -36 c-91 -63 -142 -80 -247 -85 -78 -3 -106 0 -159 18
-118 39 -210 123 -264 238 -26 56 -32 82 -35 157 -4 78 -1 100 23 170 15 44
27 88 27 99 -2 51 -81 76 -116 37 -20 -22 -66 -142 -66 -171 0 -25 -5 -25 -40
0 -40 29 -68 78 -80 141 -15 81 -64 111 -119 73 -21 -15 -23 -22 -18 -79 9
-122 81 -226 192 -280 51 -25 53 -28 64 -82 6 -31 9 -58 8 -60 -2 -2 -40 -9
-84 -15 -160 -23 -323 32 -442 151 -108 108 -161 232 -161 381 0 83 19 169 51
232 l21 40 36 -34 c20 -19 51 -45 69 -56 60 -42 123 -19 123 44 0 27 -8 39
-47 71 -96 76 -127 131 -128 220 0 52 4 68 30 105 59 84 198 123 288 79 67
-33 102 -28 126 17 31 58 -54 127 -173 139 -52 5 -56 8 -50 27 12 38 65 107
106 136 68 50 128 64 239 56 l97 -6 59 61 c101 106 196 148 333 148 55 0 103
-6 135 -17z"/>
<path d="M3879 4581 c-23 -18 -24 -26 -27 -160 l-4 -141 -138 0 c-132 0 -140
-1 -154 -22 -21 -30 -20 -61 3 -89 18 -23 26 -24 155 -27 l136 -4 0 -129 c0
-125 1 -131 25 -154 29 -30 68 -32 95 -5 18 18 20 33 20 155 l0 135 119 0
c134 0 178 11 192 48 13 33 -6 81 -35 87 -11 3 -77 6 -146 8 l-125 2 -5 143
c-4 127 -7 145 -24 158 -27 19 -59 18 -87 -5z"/>
<path d="M2191 4093 c-11 -10 -63 -115 -114 -233 l-93 -215 -174 -5 c-173 -5
-173 -5 -193 -31 -24 -33 -13 -77 24 -96 34 -18 384 -18 418 0 19 9 42 52 95
174 41 94 74 157 78 150 3 -7 64 -161 133 -342 70 -182 132 -335 139 -342 6
-6 23 -15 37 -18 46 -11 72 26 142 200 l63 160 166 5 c187 6 208 13 208 75 0
61 -13 65 -240 65 -172 0 -206 -2 -221 -16 -10 -9 -37 -63 -60 -121 -27 -67
-45 -100 -49 -92 -5 8 -63 158 -130 334 -123 321 -146 365 -189 365 -11 0 -28
-8 -40 -17z"/>
</g>
</svg>
