<?xml version="1.0" standalone="no"?>
<!DOCTYPE svg PUBLIC "-//W3C//DTD SVG 20010904//EN"
 "http://www.w3.org/TR/2001/REC-SVG-20010904/DTD/svg10.dtd">
<svg version="1.0" xmlns="http://www.w3.org/2000/svg"
 width="512.000000pt" height="512.000000pt" viewBox="0 0 512.000000 512.000000"
 preserveAspectRatio="xMidYMid meet">

<g transform="translate(0.000000,512.000000) scale(0.100000,-0.100000)"
fill="#0000FF" stroke="none">
<path d="M2441 5024 c-253 -68 -410 -331 -346 -577 22 -85 61 -154 123 -219
60 -63 164 -123 236 -136 23 -4 -123 -9 -329 -12 -369 -5 -370 -5 -420 -30
-96 -47 -165 -140 -180 -243 l-7 -47 -335 0 -334 0 -24 -25 -25 -24 0 -991 0
-991 25 -24 24 -25 535 0 535 0 3 -662 3 -663 28 -60 c75 -162 257 -248 422
-201 67 20 96 37 148 85 l37 35 38 -36 c20 -21 64 -50 97 -65 51 -24 73 -28
145 -28 72 0 94 4 146 28 77 36 145 104 181 182 l28 60 3 663 3 662 535 0 535
0 24 25 25 24 0 991 0 991 -25 24 -24 25 -334 0 -335 0 -7 48 c-8 59 -59 155
-98 188 -16 14 -53 37 -81 52 l-51 27 -370 5 c-206 3 -352 8 -329 12 72 13
176 73 236 136 183 191 183 472 1 663 -118 124 -300 177 -462 133z m270 -185
c67 -36 98 -68 137 -143 22 -43 26 -64 26 -136 1 -78 -2 -90 -33 -148 -38 -70
-70 -100 -145 -140 -43 -22 -64 -26 -136 -26 -72 0 -93 4 -136 26 -75 40 -107
70 -145 140 -31 58 -34 70 -33 148 0 100 24 160 89 225 100 100 249 121 376
54z m655 -945 c39 -28 63 -63 70 -101 l7 -33 -882 0 c-962 0 -894 -4 -870 57
14 37 47 72 84 89 24 11 173 13 797 11 757 -2 767 -2 794 -23z m794 -1174 l0
-880 -1600 0 -1600 0 0 880 0 880 1600 0 1600 0 0 -880z m-1682 -1693 l-3
-653 -27 -41 c-41 -62 -90 -88 -168 -88 -78 0 -127 26 -168 88 l-27 41 -3 653
-3 653 201 0 201 0 -3 -653z m560 0 l-3 -653 -27 -41 c-41 -62 -90 -88 -168
-88 -78 0 -127 26 -168 88 l-27 41 -3 653 -3 653 201 0 201 0 -3 -653z"/>
<path d="M1385 3415 c-24 -23 -25 -28 -25 -175 0 -147 1 -152 25 -175 15 -16
36 -25 55 -25 19 0 40 9 55 25 23 22 25 32 25 120 l0 95 95 0 c88 0 98 2 120
25 16 15 25 36 25 55 0 19 -9 40 -25 55 -23 24 -28 25 -175 25 -147 0 -152 -1
-175 -25z"/>
<path d="M2505 3415 c-24 -24 -25 -28 -25 -182 l0 -157 -120 -121 c-103 -105
-120 -126 -120 -154 0 -43 38 -81 81 -81 27 0 48 16 135 102 l104 102 104
-102 c87 -86 108 -102 135 -102 43 0 81 38 81 81 0 28 -17 49 -120 154 l-120
121 0 157 c0 154 -1 158 -25 182 -15 16 -36 25 -55 25 -19 0 -40 -9 -55 -25z"/>
<path d="M3385 3415 c-16 -15 -25 -36 -25 -55 0 -19 9 -40 25 -55 22 -23 32
-25 120 -25 l95 0 0 -95 c0 -88 2 -98 25 -120 15 -16 36 -25 55 -25 19 0 40 9
55 25 24 23 25 28 25 175 0 147 -1 152 -25 175 -23 24 -28 25 -175 25 -147 0
-152 -1 -175 -25z"/>
<path d="M2163 3241 c-70 -55 -203 -202 -279 -307 -109 -151 -204 -365 -204
-456 1 -82 56 -169 135 -211 37 -20 57 -22 247 -25 233 -4 256 1 306 66 25 33
27 43 30 158 4 121 3 124 -22 149 -33 33 -79 33 -111 0 -23 -22 -25 -32 -25
-120 l0 -95 -165 0 c-174 0 -204 6 -225 46 -16 29 -9 64 30 158 65 156 152
278 318 448 98 100 115 122 115 149 0 38 -41 79 -78 79 -13 0 -45 -17 -72 -39z"/>
<path d="M2834 3257 c-19 -17 -27 -33 -27 -55 0 -27 19 -51 124 -159 135 -140
229 -268 289 -396 54 -114 68 -169 51 -200 -22 -41 -51 -47 -226 -47 l-165 0
0 95 c0 88 -2 98 -25 120 -32 33 -78 33 -111 0 -25 -25 -26 -28 -22 -149 3
-115 5 -125 30 -158 50 -65 73 -70 306 -66 190 3 210 5 247 25 78 42 134 129
135 209 0 92 -95 307 -204 458 -123 170 -301 346 -351 346 -13 0 -36 -11 -51
-23z"/>
<path d="M1385 2375 c-24 -23 -25 -28 -25 -175 0 -147 1 -152 25 -175 23 -24
28 -25 175 -25 147 0 152 1 175 25 16 15 25 36 25 55 0 19 -9 40 -25 55 -22
23 -32 25 -120 25 l-95 0 0 95 c0 88 -2 98 -25 120 -15 16 -36 25 -55 25 -19
0 -40 -9 -55 -25z"/>
<path d="M3625 2375 c-23 -22 -25 -32 -25 -120 l0 -95 -95 0 c-88 0 -98 -2
-120 -25 -33 -32 -33 -78 0 -110 23 -24 28 -25 175 -25 147 0 152 1 175 25 24
23 25 28 25 175 0 147 -1 152 -25 175 -15 16 -36 25 -55 25 -19 0 -40 -9 -55
-25z"/>
<path d="M105 4375 l-25 -24 0 -1711 0 -1711 25 -24 24 -25 791 0 791 0 24 25
c33 32 33 78 0 110 l-24 25 -736 0 -735 0 0 1600 0 1600 835 0 836 0 24 25
c33 32 33 78 0 110 l-24 25 -891 0 -891 0 -24 -25z"/>
<path d="M3185 4375 c-16 -15 -25 -36 -25 -55 0 -19 9 -40 25 -55 l24 -25 836
0 835 0 0 -1600 0 -1600 -735 0 -736 0 -24 -25 c-33 -32 -33 -78 0 -110 l24
-25 791 0 791 0 24 25 25 24 0 1711 0 1711 -25 24 -24 25 -891 0 -891 0 -24
-25z"/>
</g>
</svg>
