<?xml version="1.0" standalone="no"?>
<!DOCTYPE svg PUBLIC "-//W3C//DTD SVG 20010904//EN"
 "http://www.w3.org/TR/2001/REC-SVG-20010904/DTD/svg10.dtd">
<svg version="1.0" xmlns="http://www.w3.org/2000/svg"
 width="512.000000pt" height="512.000000pt" viewBox="0 0 512.000000 512.000000"
 preserveAspectRatio="xMidYMid meet">

<g transform="translate(0.000000,512.000000) scale(0.100000,-0.100000)"
fill="#0000FF" stroke="none">
<path d="M725 4956 c-179 -43 -333 -184 -395 -359 -69 -197 -40 -423 86 -667
30 -58 86 -147 124 -198 39 -50 70 -94 70 -95 0 -2 -25 -21 -55 -41 -117 -81
-254 -256 -315 -403 -78 -187 -93 -313 -88 -734 4 -310 6 -328 31 -421 106
-399 422 -700 820 -784 262 -55 486 43 591 259 46 94 60 186 53 344 l-7 123
57 -26 c117 -51 213 -145 275 -267 56 -113 58 -131 58 -844 0 -640 0 -653 20
-673 18 -18 33 -20 190 -20 158 0 171 1 191 21 20 20 20 25 17 717 l-4 697
-26 95 c-78 287 -258 511 -513 638 -44 22 -91 43 -104 47 -20 6 -11 13 67 50
280 133 470 359 549 652 l27 98 6 510 c4 332 11 524 18 550 16 57 14 238 -3
314 -31 132 -129 273 -236 342 -234 150 -554 102 -791 -119 l-48 -44 -52 47
c-73 66 -127 101 -215 142 -129 59 -279 78 -398 49z m243 -121 c112 -27 239
-104 342 -209 73 -75 88 -74 170 10 163 164 360 240 532 205 162 -34 291 -156
333 -316 22 -85 20 -231 -4 -328 -82 -316 -388 -671 -839 -974 l-114 -75 -116
78 c-245 165 -501 396 -629 568 -222 299 -287 592 -179 811 94 191 290 280
504 230z m1359 -1355 c-4 -334 -11 -382 -76 -525 -83 -182 -259 -358 -433
-432 l-28 -12 37 72 c20 40 46 100 58 135 15 40 38 79 67 110 95 102 156 217
182 345 11 53 16 131 16 262 l0 185 60 76 c33 41 72 96 87 122 l28 47 3 -40
c2 -22 2 -177 -1 -345z m-1519 -41 c169 -161 527 -419 582 -419 23 0 201 112
317 200 36 27 69 47 74 45 4 -3 16 -31 25 -63 49 -160 -3 -442 -112 -613 -15
-24 -42 -70 -59 -102 l-32 -58 -27 42 c-77 115 -225 208 -368 231 -90 13 -124
4 -134 -38 -13 -51 9 -67 114 -83 160 -24 288 -129 341 -280 15 -42 16 -60 8
-90 -5 -20 -10 -155 -11 -301 l-1 -265 -32 -67 c-39 -82 -106 -151 -181 -186
-52 -25 -67 -27 -172 -26 -97 0 -128 5 -200 28 -317 104 -555 354 -642 676
-22 81 -23 101 -23 450 0 320 2 375 19 445 52 225 168 412 330 532 32 23 63
43 68 43 6 0 58 -46 116 -101z m1212 -229 c-6 -36 -23 -92 -38 -124 l-26 -60
-13 92 c-6 50 -23 124 -37 164 l-26 73 73 66 72 66 3 -106 c2 -58 -2 -135 -8
-171z m-216 -977 c245 -107 424 -316 499 -582 20 -73 21 -99 25 -728 l3 -653
-90 0 -91 0 0 615 c0 676 -2 704 -61 833 -76 169 -208 295 -379 361 -53 21
-65 30 -63 46 6 41 25 130 30 139 8 12 56 0 127 -31z"/>
<path d="M1250 4370 c-17 -17 -20 -33 -20 -120 l0 -100 -100 0 c-138 0 -140
-3 -140 -153 0 -156 1 -157 136 -157 l104 0 0 -98 c0 -142 0 -142 153 -142 67
0 129 5 137 10 11 7 16 36 20 117 l5 108 107 5 c68 3 112 10 120 18 9 9 14 51
16 125 3 103 2 115 -18 140 -21 26 -24 27 -126 27 l-104 0 0 103 c0 138 1 137
-153 137 -104 0 -119 -2 -137 -20z m170 -191 c0 -86 9 -125 34 -141 6 -4 57
-8 114 -8 l102 0 0 -35 0 -35 -100 0 c-94 0 -103 -2 -125 -25 -23 -22 -25 -32
-25 -120 l0 -95 -35 0 -35 0 0 104 c0 133 -3 136 -142 136 l-98 0 0 35 0 35
102 0 c137 0 138 1 138 137 l0 103 35 0 35 0 0 -91z"/>
<path d="M2689 4579 c-20 -20 -20 -25 -17 -717 l4 -697 26 -97 c81 -297 271
-522 551 -653 81 -37 88 -43 67 -50 -54 -16 -189 -90 -252 -137 -140 -103
-266 -269 -328 -431 -64 -166 -63 -145 -67 -909 -4 -692 -4 -697 16 -717 20
-20 33 -21 191 -21 157 0 172 2 190 20 20 20 20 33 20 673 0 713 2 731 58 844
62 122 158 216 275 267 l57 26 -7 -123 c-7 -158 7 -250 53 -344 105 -216 329
-314 592 -258 369 77 676 350 794 705 51 152 53 171 53 570 0 351 -2 381 -22
468 -108 453 -435 740 -901 792 -220 24 -410 -30 -579 -165 -167 -133 -270
-322 -290 -532 l-6 -66 -24 48 c-51 99 -53 130 -53 833 0 639 0 652 -20 672
-18 18 -33 20 -190 20 -158 0 -171 -1 -191 -21z m281 -714 c0 -523 2 -627 16
-692 26 -128 87 -243 182 -345 29 -31 52 -70 67 -110 12 -35 38 -95 58 -135
l37 -72 -28 12 c-76 32 -173 99 -242 167 -122 120 -197 245 -243 409 -20 73
-21 99 -25 729 l-3 652 90 0 91 0 0 -615z m1065 -195 c433 -49 728 -329 800
-756 14 -86 16 -153 12 -435 -5 -384 -10 -417 -97 -594 -115 -236 -314 -407
-570 -491 -73 -24 -102 -28 -205 -28 -115 -1 -122 0 -175 29 -77 42 -136 105
-173 183 l-32 67 0 240 c0 132 -4 274 -9 316 -8 73 -7 78 23 143 68 141 229
246 378 246 57 0 82 61 42 101 -19 19 -29 21 -86 15 -158 -16 -315 -109 -399
-236 l-27 -41 -32 58 c-17 32 -44 78 -59 102 -64 100 -117 267 -132 411 -8 83
15 207 55 294 89 193 288 345 493 375 88 12 92 12 193 1z m-583 -1435 c4 -16
12 -53 16 -82 l9 -52 -54 -17 c-158 -50 -304 -183 -383 -349 -69 -144 -70
-159 -70 -850 l0 -615 -90 0 -90 0 0 604 c0 372 4 635 11 683 38 279 217 529
469 654 135 67 169 71 182 24z"/>
</g>
</svg>
