<?xml version="1.0" standalone="no"?>
<!DOCTYPE svg PUBLIC "-//W3C//DTD SVG 20010904//EN"
 "http://www.w3.org/TR/2001/REC-SVG-20010904/DTD/svg10.dtd">
<svg version="1.0" xmlns="http://www.w3.org/2000/svg"
 width="512.000000pt" height="512.000000pt" viewBox="0 0 512.000000 512.000000"
 preserveAspectRatio="xMidYMid meet">

<g transform="translate(0.000000,512.000000) scale(0.100000,-0.100000)"
fill="#0000FF" stroke="none">
<path d="M2324 4949 c-18 -20 -19 -50 -24 -683 l-5 -661 -25 -47 c-21 -39
-301 -391 -306 -385 -1 1 -9 72 -19 157 -9 85 -23 182 -31 215 -43 166 -175
333 -329 412 -112 58 -188 76 -315 76 -122 -1 -232 -30 -314 -84 -148 -98
-338 -443 -581 -1054 -160 -403 -314 -840 -339 -965 -58 -287 -42 -572 45
-838 43 -129 303 -737 336 -785 67 -96 166 -149 293 -155 138 -7 198 22 421
203 51 42 105 83 119 90 14 7 82 25 150 40 332 72 402 97 509 184 150 120 240
286 257 473 8 92 -31 462 -52 495 -27 43 -91 42 -120 -2 -14 -22 -13 -43 7
-236 19 -183 21 -222 11 -283 -34 -197 -175 -358 -367 -420 -27 -8 -117 -29
-199 -46 -188 -39 -260 -63 -313 -103 -23 -18 -96 -74 -163 -125 -139 -107
-168 -122 -247 -122 -77 0 -151 41 -187 103 -44 74 -296 677 -326 779 -64 215
-76 476 -31 693 30 146 186 592 349 1000 169 422 336 754 448 891 46 55 135
100 230 114 174 27 368 -52 472 -192 81 -108 95 -157 127 -451 l25 -229 -216
-261 c-213 -259 -267 -313 -333 -336 -59 -20 -163 -14 -239 14 -54 19 -76 23
-95 16 -47 -18 -63 -85 -28 -120 29 -29 128 -62 203 -68 38 -3 68 -9 68 -12 0
-4 -36 -51 -81 -106 -44 -54 -87 -112 -96 -128 -22 -43 -28 -129 -13 -182 16
-58 86 -137 140 -159 l41 -16 -76 -94 -76 -95 -155 -3 c-150 -3 -157 -4 -175
-27 -26 -31 -24 -73 4 -99 20 -19 36 -22 152 -24 l130 -3 3 -130 c2 -116 5
-132 24 -152 26 -28 68 -30 99 -4 23 18 24 26 29 183 l5 163 375 462 c206 254
377 462 380 462 3 1 15 -85 27 -191 18 -173 23 -193 43 -210 50 -40 120 -9
120 55 0 17 -11 141 -26 275 l-25 242 64 78 c35 42 152 184 260 314 l196 238
261 -317 c254 -307 261 -317 256 -352 -18 -114 -126 -1175 -126 -1236 0 -145
69 -322 171 -437 59 -67 174 -147 256 -178 32 -12 139 -40 238 -61 235 -51
252 -57 338 -127 259 -210 292 -227 437 -227 95 0 111 3 162 28 73 36 139 100
174 168 36 72 276 639 302 714 96 281 114 583 51 874 -37 170 -287 860 -326
898 -12 13 -34 23 -48 23 -30 0 -75 -41 -75 -68 0 -11 27 -89 59 -174 234
-613 274 -763 274 -1028 0 -271 -29 -375 -237 -865 -144 -339 -163 -370 -241
-406 -51 -23 -144 -25 -188 -3 -37 19 -151 102 -252 185 -110 90 -141 102
-395 154 -173 35 -244 60 -322 111 -140 94 -228 255 -228 421 0 61 107 1094
114 1101 2 2 175 -207 385 -465 l381 -468 0 -153 c0 -149 1 -154 25 -177 31
-32 69 -32 100 0 24 23 25 29 25 155 l0 130 134 0 c133 0 135 0 155 26 24 30
26 43 10 77 -18 40 -50 47 -202 47 l-142 1 -60 76 c-95 121 -91 108 -40 133
91 44 155 159 141 257 -8 62 -35 108 -127 220 l-81 98 68 6 c88 9 183 42 212
74 36 42 28 86 -20 111 -27 14 -34 13 -105 -11 -64 -23 -90 -26 -158 -23 -125
5 -142 19 -378 303 -109 132 -210 254 -224 272 l-25 32 13 115 12 114 71 -62
c39 -34 92 -76 118 -94 80 -55 228 -121 333 -148 87 -23 120 -27 250 -27 129
1 164 4 250 27 119 31 276 106 365 174 74 56 192 177 238 243 124 182 192 423
179 644 -28 473 -375 872 -837 959 -113 22 -292 20 -405 -3 -340 -71 -626
-310 -754 -634 -53 -133 -74 -261 -68 -417 7 -170 38 -296 108 -432 20 -39 20
-45 8 -164 -7 -69 -16 -123 -20 -122 -21 8 -285 340 -308 388 l-26 55 -5 658
c-5 637 -6 659 -24 673 -29 21 -80 18 -102 -7 -16 -18 -19 -40 -22 -165 l-3
-144 -105 0 -104 0 0 145 c0 132 -2 147 -20 165 -27 27 -81 26 -106 -1z m1991
-154 c86 -24 230 -95 306 -153 429 -326 466 -968 77 -1338 -126 -120 -253
-189 -426 -231 -100 -24 -284 -22 -394 5 -265 65 -482 244 -597 494 -52 111
-71 191 -78 320 -14 261 70 481 257 668 128 128 270 208 435 244 92 20 333 15
420 -9z m-1655 -395 l0 -91 -102 3 -103 3 -3 88 -3 87 106 0 105 0 0 -90z m0
-325 l0 -85 -105 0 -105 0 0 85 0 85 105 0 105 0 0 -85z m0 -317 c0 -101 21
-205 55 -273 14 -28 284 -363 616 -765 325 -393 604 -733 620 -754 34 -46 36
-79 10 -122 -26 -43 -77 -60 -123 -41 -25 11 -177 189 -631 738 -329 398 -608
728 -621 733 -13 5 -34 6 -48 3 -18 -5 -204 -224 -628 -736 -635 -769 -628
-762 -694 -745 -37 9 -76 59 -76 97 0 18 9 46 19 62 10 17 283 350 606 740
324 391 601 730 617 755 48 75 68 158 68 281 l0 109 105 0 105 0 0 -82z"/>
<path d="M4090 4545 c-74 -21 -127 -54 -183 -114 -44 -47 -87 -124 -87 -155 0
-9 -20 -15 -57 -19 -199 -21 -349 -221 -314 -419 29 -164 162 -291 322 -305
32 -3 59 -8 59 -10 0 -2 -7 -20 -16 -41 -31 -71 -34 -93 -19 -122 15 -30 34
-40 68 -40 34 1 54 22 82 87 l27 61 56 -39 c31 -22 81 -47 111 -56 71 -20 188
-13 254 16 70 30 149 110 183 184 25 54 29 74 29 152 0 77 -4 98 -27 147 -15
32 -24 59 -20 62 4 2 31 7 59 11 69 9 103 36 103 81 0 21 -8 42 -21 55 -19 19
-28 21 -81 15 -33 -4 -65 -9 -71 -12 -9 -3 -12 24 -12 99 0 96 -2 107 -33 169
-76 155 -252 237 -412 193z m193 -167 c62 -34 100 -95 105 -167 5 -70 -8 -116
-49 -167 -37 -47 -38 -88 -2 -117 62 -50 103 -99 112 -134 42 -150 -55 -282
-207 -283 -89 0 -163 53 -206 147 -27 61 -60 72 -136 43 -75 -28 -140 -24
-204 14 -133 78 -135 277 -4 364 37 24 51 27 137 28 85 1 96 4 113 24 10 13
18 38 18 61 0 94 67 177 170 210 38 12 108 2 153 -23z"/>
<path d="M4133 4254 c-20 -20 -24 -31 -19 -57 12 -62 70 -85 120 -46 53 41 18
129 -51 129 -13 0 -35 -12 -50 -26z"/>
<path d="M3775 3959 c-49 -28 -58 -70 -24 -113 40 -51 129 -20 129 46 0 52
-62 91 -105 67z"/>
<path d="M4200 3760 c-25 -25 -26 -81 -2 -103 9 -8 29 -19 44 -22 22 -6 33 -1
59 24 25 26 30 37 24 59 -3 15 -14 35 -22 45 -22 23 -78 22 -103 -3z"/>
<path d="M3605 4505 c-14 -13 -25 -36 -25 -50 0 -14 11 -37 25 -50 13 -14 36
-25 50 -25 14 0 37 11 50 25 14 13 25 36 25 50 0 14 -11 37 -25 50 -13 14 -36
25 -50 25 -14 0 -37 -11 -50 -25z"/>
</g>
</svg>
