<?xml version="1.0" standalone="no"?>
<!DOCTYPE svg PUBLIC "-//W3C//DTD SVG 20010904//EN"
 "http://www.w3.org/TR/2001/REC-SVG-20010904/DTD/svg10.dtd">
<svg version="1.0" xmlns="http://www.w3.org/2000/svg"
 width="270.000000pt" height="270.000000pt" viewBox="0 0 270.000000 270.000000"
 preserveAspectRatio="xMidYMid meet">

<g transform="translate(0.000000,270.000000) scale(0.100000,-0.100000)"
fill="#0f52ba" stroke="none">
<path d="M1210 2194 c-109 -112 -269 -205 -530 -310 -101 -40 -106 -43 -132
-90 -26 -45 -55 -115 -73 -173 -7 -23 -6 -22 39 8 26 18 78 45 115 61 73 30
240 74 248 66 3 -3 -68 -41 -158 -85 -198 -96 -265 -149 -274 -214 -10 -72
-12 -157 -3 -151 4 3 8 11 8 18 0 26 89 134 146 178 33 25 123 77 200 117 105
53 152 83 183 116 34 37 41 41 41 24 0 -69 -65 -133 -196 -194 -206 -96 -309
-200 -349 -350 -12 -49 -13 -70 -4 -115 11 -56 74 -199 103 -235 15 -19 15
-18 8 15 -12 58 -7 252 7 295 40 120 126 237 220 297 63 40 69 35 23 -19 -60
-73 -138 -197 -163 -261 -20 -48 -23 -76 -24 -182 0 -140 19 -218 75 -302 56
-85 206 -181 350 -226 171 -53 403 -46 569 16 24 9 24 9 -10 22 -24 9 -95 14
-234 15 -221 2 -269 11 -343 65 -53 38 -106 111 -127 175 -19 57 -33 236 -17
220 5 -5 15 -28 22 -50 45 -142 140 -264 243 -311 60 -28 67 -29 237 -30 l175
-1 122 -42 c141 -47 160 -49 174 -18 15 34 0 63 -80 151 -55 61 -75 90 -87
133 -18 61 -13 80 10 36 19 -38 84 -96 134 -122 22 -11 51 -34 66 -51 26 -32
29 -45 26 -111 -2 -41 18 -62 52 -57 46 6 63 102 32 176 -20 49 -55 84 -134
137 -90 60 -115 104 -114 208 0 45 5 82 12 89 9 9 12 3 12 -27 0 -45 46 -134
82 -160 13 -9 57 -38 99 -64 94 -59 124 -111 117 -193 -4 -40 -2 -54 13 -69
11 -11 23 -19 27 -19 21 0 44 30 53 69 22 97 -34 220 -125 276 -121 75 -157
113 -169 180 -9 47 2 56 48 44 55 -15 70 -31 55 -59 -9 -17 -8 -26 5 -46 27
-42 85 -27 104 26 25 73 -19 134 -124 171 -41 14 -79 36 -101 58 -64 64 -69
81 -70 236 -1 164 -13 203 -90 285 -26 27 -42 50 -36 50 26 0 109 -69 132
-110 22 -40 26 -60 30 -180 6 -156 20 -195 83 -241 21 -15 58 -31 82 -35 120
-18 214 123 138 205 -40 43 -83 45 -108 7 -13 -19 -14 -29 -5 -45 6 -12 17
-21 25 -21 24 0 18 -40 -7 -49 -28 -10 -46 -5 -75 22 -35 32 -39 79 -13 184
31 127 25 206 -21 293 -58 109 -133 154 -308 184 -90 16 -105 24 -96 49 5 11
16 14 38 12 18 -2 57 -6 87 -9 l55 -5 -30 16 c-34 18 -187 75 -189 71 -2 -2
-14 -28 -29 -58 -35 -73 -108 -152 -181 -195 -80 -47 -100 -44 -37 5 28 22 69
64 92 93 49 61 96 153 85 164 -4 4 -44 9 -89 11 l-82 3 -65 -67z m134 -40
c-40 -68 -139 -171 -208 -215 -88 -58 -179 -87 -376 -123 -55 -10 -25 9 85 52
238 95 341 158 450 273 39 41 71 71 73 67 2 -4 -9 -28 -24 -54z m296 -140
c139 -21 204 -58 254 -142 5 -8 -11 0 -35 17 -49 36 -115 57 -209 66 -66 7
-142 33 -154 54 -11 18 5 33 28 26 11 -3 64 -13 116 -21z m-10 -200 c55 -42
95 -94 106 -138 6 -26 5 -27 -14 -17 -37 20 -96 14 -121 -13 -36 -39 -40 -82
-20 -218 25 -168 26 -157 -20 -151 -39 5 -111 -20 -111 -38 0 -15 47 -29 96
-29 34 0 51 6 69 25 29 28 30 43 10 148 -8 43 -15 79 -15 80 0 1 25 2 55 3 61
0 59 2 70 -81 8 -63 -14 -205 -55 -348 -35 -124 -47 -152 -85 -187 -25 -23
-34 -25 -118 -25 -238 1 -475 145 -537 326 -13 36 -13 36 -42 21 -31 -15 -80
-11 -104 9 -10 8 -2 22 40 62 39 39 69 84 118 182 76 150 98 177 170 210 68
32 131 33 178 3 l35 -22 -60 -7 c-55 -5 -131 -36 -179 -72 -17 -13 -14 -16 50
-42 90 -37 174 -39 230 -6 66 39 92 93 70 146 -20 48 -74 70 -172 70 -71 0
-88 -4 -140 -31 l-60 -31 18 36 c10 20 18 57 18 87 l0 52 43 -10 c104 -24 258
11 333 76 l39 34 27 -33 c15 -18 50 -50 78 -71z m-855 -870 c0 -143 -1 -153
-14 -122 -23 52 -26 168 -6 227 9 28 17 51 18 51 1 0 2 -70 2 -156z"/>
<path d="M1443 1123 c-35 -15 -63 -30 -63 -35 0 -5 56 -8 125 -7 69 0 125 4
125 7 0 4 -11 20 -24 37 -20 25 -26 27 -39 17 -12 -10 -21 -11 -36 -3 -24 13
-14 15 -88 -16z"/>
<path d="M1460 1019 c0 -26 95 -40 118 -17 21 21 14 24 -53 25 -36 0 -65 -3
-65 -8z"/>
<path d="M1060 2221 c-94 -30 -171 -68 -240 -114 -48 -33 -180 -156 -180 -168
0 -9 129 45 250 106 105 53 185 104 255 165 40 35 43 40 23 40 -13 -1 -61 -13
-108 -29z"/>
</g>
</svg>
