<?xml version="1.0" standalone="no"?>
<!DOCTYPE svg PUBLIC "-//W3C//DTD SVG 20010904//EN"
 "http://www.w3.org/TR/2001/REC-SVG-20010904/DTD/svg10.dtd">
<svg version="1.0" xmlns="http://www.w3.org/2000/svg"
 width="512.000000pt" height="512.000000pt" viewBox="0 0 512.000000 512.000000"
 preserveAspectRatio="xMidYMid meet">

<g transform="translate(0.000000,512.000000) scale(0.100000,-0.100000)"
fill="#0000FF" stroke="none">
<path d="M1595 5107 c-63 -21 -97 -42 -142 -89 -65 -67 -85 -122 -91 -255 -3
-62 -6 -113 -7 -113 -1 0 -17 8 -36 18 -54 27 -200 24 -261 -6 -60 -30 -120
-90 -150 -150 l-23 -47 -5 -663 -5 -664 -39 60 c-42 66 -101 114 -167 137 -55
20 -154 19 -215 -2 -67 -23 -164 -120 -187 -187 -21 -60 -22 -160 -3 -212 8
-22 149 -300 315 -619 l301 -580 0 -182 c0 -170 1 -184 20 -203 25 -25 74 -26
99 -1 29 29 33 66 29 261 l-3 175 -312 601 c-289 554 -313 605 -313 651 0 149
186 221 287 111 11 -12 61 -99 109 -193 48 -93 94 -178 102 -187 22 -26 84
-24 108 3 18 20 19 53 24 844 5 816 5 824 26 852 74 99 204 99 278 0 21 -28
21 -36 26 -877 5 -816 6 -849 24 -869 25 -27 79 -28 106 -1 20 20 20 33 20
1063 0 992 1 1044 19 1082 45 98 139 131 231 82 30 -16 51 -37 67 -67 l23 -43
0 -1042 c0 -1039 0 -1042 21 -1069 27 -34 79 -36 109 -4 20 22 20 30 20 913
l0 891 23 44 c37 73 107 107 184 90 51 -12 84 -39 111 -90 l22 -44 0 -893 c0
-880 0 -893 20 -913 30 -30 83 -27 109 6 21 26 21 34 21 703 l0 676 23 39 c25
45 93 86 141 86 41 0 115 -38 139 -71 31 -43 36 -98 37 -416 0 -300 0 -302 22
-317 30 -21 71 -20 99 3 l24 19 0 339 0 338 -29 62 c-33 72 -95 135 -164 166
-65 29 -190 30 -248 0 l-42 -20 -4 121 c-4 94 -10 132 -26 168 -68 154 -251
230 -408 170 l-51 -19 -6 58 c-10 109 -87 218 -185 261 -57 26 -162 33 -217
15z"/>
<path d="M2880 3203 c-8 -3 -23 -12 -32 -21 -17 -14 -18 -45 -18 -388 0 -342
-2 -377 -19 -421 -10 -26 -26 -83 -36 -125 -10 -48 -22 -78 -30 -78 -7 0 -50
-19 -96 -42 -120 -59 -232 -173 -316 -323 -111 -199 -192 -288 -308 -341 -48
-22 -80 -28 -194 -36 -151 -10 -229 -27 -310 -66 -194 -95 -291 -327 -236
-561 51 -217 243 -352 580 -411 66 -11 150 -30 188 -42 135 -42 187 -126 138
-224 -27 -53 -19 -91 22 -114 36 -20 74 -4 111 47 24 35 30 55 34 116 4 64 1
82 -20 128 -56 122 -172 189 -387 225 -394 65 -543 188 -529 435 6 102 41 175
110 229 68 55 151 78 316 89 145 10 214 28 296 76 109 64 214 187 316 369 63
114 128 189 205 240 85 57 81 59 88 -41 3 -48 15 -123 26 -165 l20 -78 -99
-156 c-55 -86 -100 -165 -100 -175 0 -10 10 -30 23 -45 22 -25 27 -26 115 -25
l92 2 0 -184 c0 -172 1 -185 20 -202 28 -25 76 -23 103 4 21 20 22 32 25 206
4 223 2 221 129 111 397 -343 965 -355 1373 -28 174 138 296 331 362 570 18
65 22 105 22 252 1 153 -2 186 -22 260 -111 408 -429 708 -832 784 -106 21
-298 21 -398 0 -224 -45 -444 -167 -581 -321 l-50 -56 -3 241 c-3 226 -4 243
-23 261 -23 22 -53 32 -75 24z m1165 -308 c103 -28 273 -118 354 -187 163
-138 277 -341 312 -552 16 -105 7 -290 -21 -385 -114 -399 -469 -670 -877
-671 -240 0 -450 84 -630 253 l-95 89 -135 -7 c-114 -6 -134 -5 -128 6 5 8 34
55 65 104 31 50 59 98 63 108 4 10 -5 57 -20 105 -25 79 -27 101 -27 252 0
151 2 172 27 253 103 336 365 575 708 647 68 14 334 5 404 -15z"/>
<path d="M3661 2799 c-116 -23 -257 -88 -353 -164 -120 -94 -234 -270 -275
-425 -25 -91 -24 -310 0 -400 74 -266 272 -474 537 -562 89 -30 104 -32 240
-32 136 0 151 2 240 32 216 72 384 218 480 416 61 127 74 190 75 346 0 153
-14 219 -71 339 -109 232 -313 394 -563 447 -72 15 -240 17 -310 3z m349 -167
c138 -45 285 -162 358 -285 114 -190 121 -427 20 -634 -50 -103 -177 -228
-288 -282 -193 -94 -387 -94 -580 0 -110 54 -238 179 -288 281 -185 380 9 820
410 928 97 27 272 22 368 -8z"/>
<path d="M3755 2545 c-119 -46 -177 -188 -124 -305 27 -60 45 -79 104 -106
225 -106 429 170 261 354 -53 59 -165 85 -241 57z m130 -160 c69 -68 -31 -170
-102 -103 -33 30 -31 80 3 107 35 28 69 26 99 -4z"/>
<path d="M3465 2111 c-107 -26 -175 -113 -175 -223 1 -128 93 -218 225 -218
69 0 120 25 168 81 103 120 46 309 -106 354 -55 16 -66 17 -112 6z m96 -170
c34 -35 36 -59 8 -95 -27 -35 -90 -37 -113 -4 -32 45 -15 103 34 121 29 11 42
7 71 -22z"/>
<path d="M4005 2041 c-163 -40 -229 -236 -124 -365 85 -102 267 -103 344 -2
60 78 70 159 31 242 -28 59 -75 100 -142 120 -51 15 -63 16 -109 5z m84 -156
c88 -45 24 -168 -67 -130 -54 23 -56 101 -4 129 34 19 37 19 71 1z"/>
<path d="M2365 1345 c-16 -15 -25 -36 -25 -55 0 -36 38 -80 69 -80 77 0 118
84 66 135 -15 16 -36 25 -55 25 -19 0 -40 -9 -55 -25z"/>
<path d="M2165 1115 c-64 -63 4 -161 90 -129 18 7 45 55 45 79 0 26 -55 75
-85 75 -14 0 -37 -11 -50 -25z"/>
<path d="M900 1100 c-19 -19 -20 -33 -20 -538 l0 -519 23 -21 c41 -39 97 -25
116 29 7 22 11 188 11 516 0 405 -2 489 -15 512 -23 46 -80 56 -115 21z"/>
<path d="M1695 1075 c-14 -13 -25 -36 -25 -50 0 -30 49 -85 75 -85 24 0 72 27
79 45 33 86 -66 154 -129 90z"/>
<path d="M2508 786 c-44 -33 -42 -98 4 -130 52 -36 118 -1 118 63 0 65 -72
105 -122 67z"/>
<path d="M1989 751 c-26 -27 -30 -37 -25 -64 13 -65 85 -89 131 -42 47 46 23
118 -42 131 -27 5 -37 1 -64 -25z"/>
<path d="M2852 654 c-22 -15 -22 -16 -22 -314 0 -295 0 -300 22 -320 44 -41
111 -13 123 52 4 18 5 152 3 296 -3 263 -3 264 -27 283 -28 23 -69 24 -99 3z"/>
<path d="M2520 337 c-38 -19 -55 -61 -40 -98 33 -80 150 -59 150 27 0 60 -59
98 -110 71z"/>
</g>
</svg>
